<?xml version="1.0" standalone="no"?>
<!DOCTYPE svg PUBLIC "-//W3C//DTD SVG 20010904//EN"
 "http://www.w3.org/TR/2001/REC-SVG-20010904/DTD/svg10.dtd">
<svg version="1.0" xmlns="http://www.w3.org/2000/svg"
 width="300.000000pt" height="150.000000pt" viewBox="0 0 300.000000 150.000000"
 preserveAspectRatio="xMidYMid meet">
<metadata>
Created by potrace 1.10, written by Peter Selinger 2001-2011
</metadata>
<g transform="translate(0.000000,150.000000) scale(0.100000,-0.100000)"
fill="#000000" stroke="none">
<path d="M450 1413 c0 -10 -24 -105 -54 -211 l-53 -192 190 2 190 3 52 190
c29 105 56 198 60 208 4 9 5 17 3 17 -2 0 -37 -41 -77 -91 -51 -62 -76 -86
-82 -78 -4 7 -15 43 -25 81 -10 37 -20 68 -23 68 -3 -1 -33 -37 -66 -82 l-60
-82 -12 40 c-6 21 -15 60 -19 87 -7 47 -24 75 -24 40z m180 -88 c0 -14 4 -25
8 -25 4 0 12 -15 17 -32 6 -18 17 -34 25 -35 16 -3 83 51 74 60 -3 3 -1 8 5
12 7 4 11 -5 11 -24 0 -16 -4 -33 -10 -36 -5 -3 -10 -16 -10 -27 0 -12 -9 -57
-21 -100 l-21 -78 -164 0 c-104 0 -164 4 -164 10 0 16 61 233 70 250 7 12 10
12 15 -5 30 -91 37 -89 124 24 28 38 41 39 41 6z"/>
<path d="M315 900 c-4 -11 -55 -198 -114 -415 l-108 -395 352 0 353 0 21 78
c11 42 32 116 45 164 l24 88 -165 0 c-152 0 -164 1 -159 18 3 9 33 116 66 237
33 121 63 226 65 233 3 9 -38 12 -185 12 -180 0 -189 -1 -195 -20z m339 -47
c-8 -27 -25 -91 -38 -143 -14 -52 -36 -137 -50 -188 -27 -99 -26 -122 6 -122
10 0 17 -3 15 -7 -7 -11 217 -10 225 1 3 5 14 2 23 -8 16 -15 14 -25 -22 -146
l-38 -130 -322 0 -322 0 4 39 c2 22 10 55 18 73 7 18 19 60 27 93 22 101 136
508 153 548 l16 37 160 0 160 0 -15 -47z"/>
<path d="M1025 523 c-59 -219 -110 -406 -113 -415 -4 -17 9 -18 181 -18 l185
0 22 82 c80 294 119 432 119 427 2 -17 82 -468 86 -487 l5 -22 231 2 231 3
135 205 c73 113 148 228 164 255 17 28 29 41 26 30 -10 -40 -128 -466 -134
-480 -4 -13 22 -15 183 -15 l189 0 109 403 c60 221 111 408 114 415 3 9 -65
12 -321 12 l-324 0 -154 -245 c-85 -134 -157 -244 -161 -245 -5 0 -8 8 -8 18
0 9 -19 119 -42 244 l-43 228 -286 0 -286 0 -108 -397z m648 363 c11 -9 24
-48 37 -122 11 -60 25 -131 30 -157 6 -27 10 -64 10 -83 0 -23 4 -33 11 -28 6
4 10 -1 8 -12 -3 -25 11 -74 21 -74 20 0 40 13 40 26 0 7 6 17 14 21 8 5 19
17 23 28 5 11 30 52 56 92 26 39 47 76 47 82 0 6 5 11 10 11 6 0 10 6 10 14 0
8 4 16 8 18 4 2 32 42 62 90 30 49 61 88 68 88 6 0 12 5 12 10 0 6 104 10 293
9 172 0 284 -4 272 -9 -18 -8 -18 -9 -2 -9 13 -1 17 -7 14 -18 -3 -10 -10 -43
-17 -73 -6 -30 -14 -62 -17 -70 -3 -8 -7 -22 -9 -30 -4 -19 -35 -132 -79 -290
-20 -69 -43 -152 -51 -185 -8 -33 -17 -67 -21 -75 -3 -8 -5 -18 -5 -22 1 -5
-72 -8 -162 -8 l-164 0 19 78 c11 42 24 86 28 97 8 17 21 70 71 272 11 44 -11
64 -37 33 -10 -12 -28 -34 -40 -48 -13 -15 -23 -31 -23 -36 0 -4 -15 -29 -33
-55 -19 -25 -44 -65 -57 -89 -13 -23 -26 -42 -30 -42 -3 0 -14 -17 -25 -37
-11 -21 -26 -42 -33 -46 -7 -5 -10 -12 -7 -18 4 -5 -1 -12 -9 -15 -9 -3 -13
-10 -10 -15 3 -5 -2 -12 -10 -15 -9 -3 -16 -13 -16 -20 0 -8 -7 -17 -15 -20
-8 -4 -12 -10 -9 -15 3 -5 -86 -9 -211 -9 -189 0 -216 2 -211 15 3 8 2 15 -3
15 -5 0 -16 44 -25 98 -9 53 -21 117 -26 142 -5 25 -14 80 -21 123 -6 42 -17
85 -24 94 -17 22 -41 11 -48 -24 -8 -36 -34 -128 -88 -316 l-43 -148 -158 2
c-132 1 -158 3 -158 15 0 9 5 12 12 8 6 -4 8 -3 5 3 -7 12 43 217 118 483 26
91 54 191 62 222 l15 57 252 0 c196 1 255 -2 269 -13z"/>
<path d="M2433 883 c20 -2 54 -2 75 0 20 2 3 4 -38 4 -41 0 -58 -2 -37 -4z"/>
</g>
</svg>
